<?xml version="1.0" standalone="no"?>
<!DOCTYPE svg PUBLIC "-//W3C//DTD SVG 20010904//EN"
 "http://www.w3.org/TR/2001/REC-SVG-20010904/DTD/svg10.dtd">
<svg version="1.0" xmlns="http://www.w3.org/2000/svg"
 width="50.000000pt" height="50.000000pt" viewBox="0 0 50.000000 50.000000"
 preserveAspectRatio="xMidYMid meet">

<g transform="translate(0.000000,50.000000) scale(0.100000,-0.100000)"
fill="#000000" stroke="none">
<path d="M235 480 c-8 -24 -21 -26 -29 -5 -8 22 -26 19 -26 -4 0 -23 -16 -36
-25 -21 -3 5 -13 10 -21 10 -11 0 -13 -6 -9 -21 7 -20 4 -21 -20 -15 -25 6
-26 5 -20 -23 5 -26 4 -29 -13 -24 -21 5 -39 -12 -22 -22 15 -10 12 -35 -4
-29 -21 8 -32 -17 -13 -31 22 -16 21 -22 -3 -28 -23 -6 -27 -27 -6 -27 23 0
31 -22 12 -32 -22 -12 -20 -28 4 -28 21 0 27 -15 10 -25 -18 -11 1 -36 23 -29
17 5 19 3 13 -21 -7 -25 -5 -27 19 -21 20 5 25 3 25 -13 0 -23 16 -36 25 -21
10 17 25 11 25 -10 0 -23 25 -27 34 -5 8 21 23 19 29 -5 3 -11 10 -20 16 -20
6 0 11 9 11 20 0 24 16 26 28 4 12 -21 32 -9 32 18 0 20 1 20 18 5 21 -19 32
-13 32 15 0 15 5 18 19 13 24 -7 37 11 21 30 -13 15 -8 19 23 16 20 -3 23 19
5 37 -9 9 -7 12 9 12 25 0 38 26 17 34 -19 7 -18 26 1 26 20 0 19 20 -2 37
-13 10 -15 16 -5 19 20 9 14 34 -8 34 -22 0 -26 10 -9 27 16 16 3 32 -21 26
-21 -5 -28 11 -10 22 19 11 -2 27 -27 20 -21 -5 -24 -3 -18 14 3 11 0 23 -7
27 -6 4 -14 2 -16 -4 -6 -20 -32 -13 -32 8 0 23 -18 27 -26 5 -8 -21 -21 -19
-27 5 -3 11 -10 20 -15 20 -6 0 -14 -9 -17 -20z m102 -49 c52 -24 100 -88 108
-145 18 -118 -72 -226 -189 -226 -58 0 -93 14 -135 53 -42 40 -61 84 -61 143
0 142 145 234 277 175z"/>
<path d="M206 400 c-56 -17 -106 -85 -106 -145 0 -24 11 -30 46 -26 6 1 11 -6
11 -14 0 -15 -10 -19 -35 -16 -10 2 -11 -2 -2 -18 6 -12 13 -21 16 -21 3 0 2
4 -1 10 -3 5 3 10 14 10 14 0 19 -5 15 -15 -5 -13 -2 -13 23 0 19 9 55 13 111
11 73 -2 84 0 93 17 6 10 8 21 5 25 -3 3 -6 1 -6 -5 0 -6 -23 -13 -50 -15 -28
-1 -50 1 -50 6 0 5 -6 4 -12 -2 -7 -5 -22 -6 -32 -2 -16 5 -17 8 -6 15 20 12
90 12 90 0 0 -5 5 -3 10 5 7 11 12 12 21 3 18 -18 39 9 39 49 0 48 -34 96 -83
118 -46 21 -66 23 -111 10z m47 -27 c-7 -2 -19 -2 -25 0 -7 3 -2 5 12 5 14 0
19 -2 13 -5z m44 1 c-3 -3 -12 -4 -19 -1 -8 3 -5 6 6 6 11 1 17 -2 13 -5z
m-97 -150 c0 -3 -7 -12 -15 -20 -13 -14 -15 -13 -15 5 0 12 6 21 15 21 8 0 15
-3 15 -6z"/>
</g>
</svg>
